STARTFONT 2.1
COMMENT
COMMENT  Copyright (c) 2001, Poonlap Veerathanabutr
COMMENT
COMMENT  License to copy and distribute for both commercial and
COMMENT  non-commercial use is herby granted, provided this notice
COMMENT  is preserved.
COMMENT
COMMENT  Poonlap.Veerathanabutr@japan.sun.com
COMMENT  This font is my hobby, there is nothing related with Sun Microsystems.
COMMENT  The motivation is I want to use some Thai font with emacs but I don't 
COMMENT  like the default one. This font is a bit big but the "head" of thai shows
COMMENT  apparently which I think it is important.
COMMENT
COMMENT  Produced with bdfedit, a tcl/tk font editing program
COMMENT  written by Thomas A. Fine
COMMENT
FONT -poonlap-emacs-small-r-normal--8-140-100-100-c-8-tis620-0
SIZE 8 72 72
FONTBOUNDINGBOX 16 20 -8 -4
STARTPROPERTIES 11
FOUNDRY "poonlap"
FAMILY_NAME "fixed"
WEIGHT_NAME "small"
SLANT "R"
SETWIDTH_NAME "Normal"
SPACING "c"
CHARSET_REGISTRY "ISO-8859"
CHARSET_ENCODING "1"
COPYRIGHT "Copyright (c) 2001 Poonlap Veerathanabutr Poonlap.Veerathanabutr@japan.sun.com"
FONT_ASCENT  16
FONT_DESCENT 4
ENDPROPERTIES
CHARS 182
STARTCHAR space
ENCODING 32
SWIDTH 1000 0
DWIDTH 8 0
BBX 0 0 0 0
BITMAP
ENDCHAR
STARTCHAR exclam
ENCODING 33
SWIDTH 1000 0
DWIDTH 8 0
BBX 1 8 4 0
BITMAP
80
80
80
80
80
80
00
80
ENDCHAR
STARTCHAR quotedbl
ENCODING 34
SWIDTH 1000 0
DWIDTH 8 0
BBX 3 3 3 6
BITMAP
a0
a0
a0
ENDCHAR
STARTCHAR numbersign
ENCODING 35
SWIDTH 1000 0
DWIDTH 8 0
BBX 7 8 1 0
BITMAP
28
28
fe
28
28
fe
28
28
ENDCHAR
STARTCHAR dollar
ENCODING 36
SWIDTH 1000 0
DWIDTH 8 0
BBX 5 10 2 -1
BITMAP
20
70
a8
a0
60
30
28
a8
70
20
ENDCHAR
STARTCHAR percent
ENCODING 37
SWIDTH 1000 0
DWIDTH 8 0
BBX 5 8 2 0
BITMAP
48
a8
50
20
20
50
a8
90
ENDCHAR
STARTCHAR ampersand
ENCODING 38
SWIDTH 1000 0
DWIDTH 8 0
BBX 6 8 1 0
BITMAP
20
50
50
24
68
90
90
6c
ENDCHAR
STARTCHAR quoteright
ENCODING 39
SWIDTH 1000 0
DWIDTH 8 0
BBX 2 3 3 6
BITMAP
40
40
80
ENDCHAR
STARTCHAR parenleft
ENCODING 40
SWIDTH 1000 0
DWIDTH 8 0
BBX 3 8 3 0
BITMAP
20
40
80
80
80
80
40
20
ENDCHAR
STARTCHAR parenright
ENCODING 41
SWIDTH 1000 0
DWIDTH 8 0
BBX 3 8 3 0
BITMAP
80
40
20
20
20
20
40
80
ENDCHAR
STARTCHAR asterisk
ENCODING 42
SWIDTH 1000 0
DWIDTH 8 0
BBX 5 6 2 1
BITMAP
20
20
f8
20
50
88
ENDCHAR
STARTCHAR plus
ENCODING 43
SWIDTH 1000 0
DWIDTH 8 0
BBX 5 5 2 1
BITMAP
20
20
f8
20
20
ENDCHAR
STARTCHAR comma
ENCODING 44
SWIDTH 1000 0
DWIDTH 8 0
BBX 2 3 4 -2
BITMAP
40
40
80
ENDCHAR
STARTCHAR minus
ENCODING 45
SWIDTH 1000 0
DWIDTH 8 0
BBX 5 1 2 3
BITMAP
f8
ENDCHAR
STARTCHAR period
ENCODING 46
SWIDTH 1000 0
DWIDTH 8 0
BBX 2 2 3 0
BITMAP
c0
c0
ENDCHAR
STARTCHAR slash
ENCODING 47
SWIDTH 1000 0
DWIDTH 8 0
BBX 5 8 2 0
BITMAP
08
10
10
20
20
40
40
80
ENDCHAR
STARTCHAR zero
ENCODING 48
SWIDTH 1000 0
DWIDTH 8 0
BBX 5 8 2 0
BITMAP
70
98
a8
a8
a8
a8
c8
70
ENDCHAR
STARTCHAR one
ENCODING 49
SWIDTH 1000 0
DWIDTH 8 0
BBX 3 8 3 0
BITMAP
40
c0
40
40
40
40
40
e0
ENDCHAR
STARTCHAR two
ENCODING 50
SWIDTH 1000 0
DWIDTH 8 0
BBX 5 8 2 0
BITMAP
70
88
08
30
40
80
80
f8
ENDCHAR
STARTCHAR three
ENCODING 51
SWIDTH 1000 0
DWIDTH 8 0
BBX 5 8 2 0
BITMAP
70
88
08
70
08
08
88
70
ENDCHAR
STARTCHAR four
ENCODING 52
SWIDTH 1000 0
DWIDTH 8 0
BBX 5 8 2 0
BITMAP
10
30
50
50
90
f8
10
10
ENDCHAR
STARTCHAR five
ENCODING 53
SWIDTH 1000 0
DWIDTH 8 0
BBX 5 8 2 0
BITMAP
f8
80
80
f0
08
08
88
70
ENDCHAR
STARTCHAR six
ENCODING 54
SWIDTH 1000 0
DWIDTH 8 0
BBX 5 8 2 0
BITMAP
70
88
80
f0
88
88
88
70
ENDCHAR
STARTCHAR seven
ENCODING 55
SWIDTH 1000 0
DWIDTH 8 0
BBX 5 8 2 0
BITMAP
f8
08
08
10
20
20
40
40
ENDCHAR
STARTCHAR eight
ENCODING 56
SWIDTH 1000 0
DWIDTH 8 0
BBX 5 8 2 0
BITMAP
70
88
88
70
88
88
88
70
ENDCHAR
STARTCHAR nine
ENCODING 57
SWIDTH 1000 0
DWIDTH 8 0
BBX 5 8 2 0
BITMAP
70
88
88
78
08
08
88
70
ENDCHAR
STARTCHAR colon
ENCODING 58
SWIDTH 1000 0
DWIDTH 8 0
BBX 2 6 4 1
BITMAP
c0
c0
00
00
c0
c0
ENDCHAR
STARTCHAR semicolon
ENCODING 59
SWIDTH 1000 0
DWIDTH 8 0
BBX 2 8 4 -1
BITMAP
c0
c0
00
00
c0
c0
40
80
ENDCHAR
STARTCHAR less
ENCODING 60
SWIDTH 1000 0
DWIDTH 8 0
BBX 5 9 1 -1
BITMAP
08
10
20
40
80
40
20
10
08
ENDCHAR
STARTCHAR equal
ENCODING 61
SWIDTH 1000 0
DWIDTH 8 0
BBX 5 3 2 2
BITMAP
f8
00
f8
ENDCHAR
STARTCHAR greater
ENCODING 62
SWIDTH 1000 0
DWIDTH 8 0
BBX 5 9 2 -1
BITMAP
80
40
20
10
08
10
20
40
80
ENDCHAR
STARTCHAR question
ENCODING 63
SWIDTH 1000 0
DWIDTH 8 0
BBX 5 8 2 0
BITMAP
70
88
08
10
20
20
00
20
ENDCHAR
STARTCHAR at
ENCODING 64
SWIDTH 1000 0
DWIDTH 8 0
BBX 7 9 1 0
BITMAP
78
84
9c
a4
a4
9e
80
84
78
ENDCHAR
STARTCHAR A
ENCODING 65
SWIDTH 1000 0
DWIDTH 8 0
BBX 5 8 2 0
BITMAP
20
50
88
88
f8
88
88
88
ENDCHAR
STARTCHAR B
ENCODING 66
SWIDTH 1000 0
DWIDTH 8 0
BBX 5 8 2 0
BITMAP
f0
88
88
f0
88
88
88
f0
ENDCHAR
STARTCHAR C
ENCODING 67
SWIDTH 1000 0
DWIDTH 8 0
BBX 5 8 2 0
BITMAP
70
88
80
80
80
80
88
70
ENDCHAR
STARTCHAR D
ENCODING 68
SWIDTH 1000 0
DWIDTH 8 0
BBX 5 8 2 0
BITMAP
f0
88
88
88
88
88
88
f0
ENDCHAR
STARTCHAR E
ENCODING 69
SWIDTH 1000 0
DWIDTH 8 0
BBX 5 8 2 0
BITMAP
f8
80
80
f8
80
80
80
f8
ENDCHAR
STARTCHAR F
ENCODING 70
SWIDTH 1000 0
DWIDTH 8 0
BBX 5 8 2 0
BITMAP
f8
80
80
f0
80
80
80
80
ENDCHAR
STARTCHAR G
ENCODING 71
SWIDTH 1000 0
DWIDTH 8 0
BBX 5 8 2 0
BITMAP
70
88
80
80
98
88
88
70
ENDCHAR
STARTCHAR H
ENCODING 72
SWIDTH 1000 0
DWIDTH 8 0
BBX 5 8 2 0
BITMAP
88
88
88
f8
88
88
88
88
ENDCHAR
STARTCHAR I
ENCODING 73
SWIDTH 1000 0
DWIDTH 8 0
BBX 3 8 3 0
BITMAP
e0
40
40
40
40
40
40
e0
ENDCHAR
STARTCHAR J
ENCODING 74
SWIDTH 1000 0
DWIDTH 8 0
BBX 6 8 1 0
BITMAP
1c
08
08
08
08
88
88
70
ENDCHAR
STARTCHAR K
ENCODING 75
SWIDTH 1000 0
DWIDTH 8 0
BBX 5 8 2 0
BITMAP
88
90
a0
c0
a0
90
88
88
ENDCHAR
STARTCHAR L
ENCODING 76
SWIDTH 1000 0
DWIDTH 8 0
BBX 5 8 2 0
BITMAP
80
80
80
80
80
80
80
f8
ENDCHAR
STARTCHAR M
ENCODING 77
SWIDTH 1000 0
DWIDTH 8 0
BBX 5 8 2 0
BITMAP
88
d8
a8
88
88
88
88
88
ENDCHAR
STARTCHAR N
ENCODING 78
SWIDTH 1000 0
DWIDTH 8 0
BBX 5 8 2 0
BITMAP
88
c8
c8
a8
a8
98
98
88
ENDCHAR
STARTCHAR O
ENCODING 79
SWIDTH 1000 0
DWIDTH 8 0
BBX 5 8 2 0
BITMAP
70
88
88
88
88
88
88
70
ENDCHAR
STARTCHAR P
ENCODING 80
SWIDTH 1000 0
DWIDTH 8 0
BBX 5 8 2 0
BITMAP
f0
88
88
88
f0
80
80
80
ENDCHAR
STARTCHAR Q
ENCODING 81
SWIDTH 1000 0
DWIDTH 8 0
BBX 6 9 2 -1
BITMAP
70
88
88
88
88
a8
98
78
04
ENDCHAR
STARTCHAR R
ENCODING 82
SWIDTH 1000 0
DWIDTH 8 0
BBX 5 8 2 0
BITMAP
f0
88
88
88
f0
88
88
88
ENDCHAR
STARTCHAR S
ENCODING 83
SWIDTH 1000 0
DWIDTH 8 0
BBX 5 8 2 0
BITMAP
70
88
80
60
10
08
88
70
ENDCHAR
STARTCHAR T
ENCODING 84
SWIDTH 1000 0
DWIDTH 8 0
BBX 5 8 2 0
BITMAP
f8
20
20
20
20
20
20
20
ENDCHAR
STARTCHAR U
ENCODING 85
SWIDTH 1000 0
DWIDTH 8 0
BBX 5 8 2 0
BITMAP
88
88
88
88
88
88
88
70
ENDCHAR
STARTCHAR V
ENCODING 86
SWIDTH 1000 0
DWIDTH 8 0
BBX 5 8 2 0
BITMAP
88
88
88
50
50
50
20
20
ENDCHAR
STARTCHAR W
ENCODING 87
SWIDTH 1000 0
DWIDTH 8 0
BBX 7 8 1 0
BITMAP
82
82
92
54
54
54
28
28
ENDCHAR
STARTCHAR X
ENCODING 88
SWIDTH 1000 0
DWIDTH 8 0
BBX 5 8 2 0
BITMAP
88
88
50
20
50
88
88
88
ENDCHAR
STARTCHAR Y
ENCODING 89
SWIDTH 1000 0
DWIDTH 8 0
BBX 5 8 2 0
BITMAP
88
88
88
50
20
20
20
20
ENDCHAR
STARTCHAR Z
ENCODING 90
SWIDTH 1000 0
DWIDTH 8 0
BBX 5 8 2 0
BITMAP
f8
08
10
20
40
80
80
f8
ENDCHAR
STARTCHAR bracketleft
ENCODING 91
SWIDTH 1000 0
DWIDTH 8 0
BBX 3 10 2 -1
BITMAP
e0
80
80
80
80
80
80
80
80
e0
ENDCHAR
STARTCHAR backslash
ENCODING 92
SWIDTH 1000 0
DWIDTH 8 0
BBX 5 8 2 0
BITMAP
80
40
40
20
20
10
10
08
ENDCHAR
STARTCHAR bracketright
ENCODING 93
SWIDTH 1000 0
DWIDTH 8 0
BBX 3 10 3 -1
BITMAP
e0
20
20
20
20
20
20
20
20
e0
ENDCHAR
STARTCHAR asciicircum
ENCODING 94
SWIDTH 1000 0
DWIDTH 8 0
BBX 5 3 2 7
BITMAP
20
50
88
ENDCHAR
STARTCHAR underscore
ENCODING 95
SWIDTH 1000 0
DWIDTH 8 0
BBX 6 1 1 0
BITMAP
fc
ENDCHAR
STARTCHAR quoteleft
ENCODING 96
SWIDTH 1000 0
DWIDTH 8 0
BBX 2 3 3 6
BITMAP
80
80
40
ENDCHAR
STARTCHAR a
ENCODING 97
SWIDTH 1000 0
DWIDTH 8 0
BBX 6 6 1 0
BITMAP
70
88
78
88
88
74
ENDCHAR
STARTCHAR b
ENCODING 98
SWIDTH 1000 0
DWIDTH 8 0
BBX 5 9 2 0
BITMAP
80
80
80
f0
88
88
88
88
f0
ENDCHAR
STARTCHAR c
ENCODING 99
SWIDTH 1000 0
DWIDTH 8 0
BBX 5 6 2 0
BITMAP
70
88
80
80
88
70
ENDCHAR
STARTCHAR d
ENCODING 100
SWIDTH 1000 0
DWIDTH 8 0
BBX 5 9 2 0
BITMAP
08
08
08
78
88
88
88
88
78
ENDCHAR
STARTCHAR e
ENCODING 101
SWIDTH 1000 0
DWIDTH 8 0
BBX 5 6 2 0
BITMAP
70
88
f8
80
88
70
ENDCHAR
STARTCHAR f
ENCODING 102
SWIDTH 1000 0
DWIDTH 8 0
BBX 5 9 2 0
BITMAP
30
48
40
e0
40
40
40
40
40
ENDCHAR
STARTCHAR g
ENCODING 103
SWIDTH 1000 0
DWIDTH 8 0
BBX 5 9 2 -3
BITMAP
70
88
88
88
88
78
08
08
70
ENDCHAR
STARTCHAR h
ENCODING 104
SWIDTH 1000 0
DWIDTH 8 0
BBX 5 9 2 0
BITMAP
80
80
80
b0
c8
88
88
88
88
ENDCHAR
STARTCHAR i
ENCODING 105
SWIDTH 1000 0
DWIDTH 8 0
BBX 1 8 4 0
BITMAP
80
00
80
80
80
80
80
80
ENDCHAR
STARTCHAR j
ENCODING 106
SWIDTH 1000 0
DWIDTH 8 0
BBX 4 10 2 -2
BITMAP
10
00
10
10
10
10
10
10
90
60
ENDCHAR
STARTCHAR k
ENCODING 107
SWIDTH 1000 0
DWIDTH 8 0
BBX 5 9 2 0
BITMAP
80
80
80
88
90
e0
90
88
88
ENDCHAR
STARTCHAR l
ENCODING 108
SWIDTH 1000 0
DWIDTH 8 0
BBX 2 9 3 0
BITMAP
c0
40
40
40
40
40
40
40
40
ENDCHAR
STARTCHAR m
ENCODING 109
SWIDTH 1000 0
DWIDTH 8 0
BBX 6 6 1 0
BITMAP
a8
54
54
54
54
54
ENDCHAR
STARTCHAR n
ENCODING 110
SWIDTH 1000 0
DWIDTH 8 0
BBX 5 6 2 0
BITMAP
b0
c8
88
88
88
88
ENDCHAR
STARTCHAR o
ENCODING 111
SWIDTH 1000 0
DWIDTH 8 0
BBX 5 6 2 0
BITMAP
70
88
88
88
88
70
ENDCHAR
STARTCHAR p
ENCODING 112
SWIDTH 1000 0
DWIDTH 8 0
BBX 5 9 2 -3
BITMAP
f0
88
88
88
88
f0
80
80
80
ENDCHAR
STARTCHAR q
ENCODING 113
SWIDTH 1000 0
DWIDTH 8 0
BBX 5 9 2 -3
BITMAP
78
88
88
88
88
78
08
08
08
ENDCHAR
STARTCHAR r
ENCODING 114
SWIDTH 1000 0
DWIDTH 8 0
BBX 5 6 2 0
BITMAP
b0
c8
80
80
80
80
ENDCHAR
STARTCHAR s
ENCODING 115
SWIDTH 1000 0
DWIDTH 8 0
BBX 5 6 2 0
BITMAP
70
88
70
08
88
70
ENDCHAR
STARTCHAR t
ENCODING 116
SWIDTH 1000 0
DWIDTH 8 0
BBX 3 9 3 0
BITMAP
40
40
e0
40
40
40
40
40
40
ENDCHAR
STARTCHAR u
ENCODING 117
SWIDTH 1000 0
DWIDTH 8 0
BBX 5 6 2 0
BITMAP
88
88
88
88
88
70
ENDCHAR
STARTCHAR v
ENCODING 118
SWIDTH 1000 0
DWIDTH 8 0
BBX 5 6 2 0
BITMAP
88
88
88
50
50
20
ENDCHAR
STARTCHAR w
ENCODING 119
SWIDTH 1000 0
DWIDTH 8 0
BBX 5 6 2 0
BITMAP
88
88
a8
a8
50
50
ENDCHAR
STARTCHAR x
ENCODING 120
SWIDTH 1000 0
DWIDTH 8 0
BBX 5 6 2 0
BITMAP
88
50
20
50
88
88
ENDCHAR
STARTCHAR y
ENCODING 121
SWIDTH 1000 0
DWIDTH 8 0
BBX 5 9 2 -3
BITMAP
88
88
88
50
50
20
20
20
c0
ENDCHAR
STARTCHAR z
ENCODING 122
SWIDTH 1000 0
DWIDTH 8 0
BBX 5 6 2 0
BITMAP
f8
10
20
40
80
f8
ENDCHAR
STARTCHAR braceleft
ENCODING 123
SWIDTH 1000 0
DWIDTH 8 0
BBX 4 10 2 -1
BITMAP
30
40
40
40
80
40
40
40
40
30
ENDCHAR
STARTCHAR bar
ENCODING 124
SWIDTH 1000 0
DWIDTH 8 0
BBX 1 10 4 -1
BITMAP
80
80
80
80
80
80
80
80
80
80
ENDCHAR
STARTCHAR braceright
ENCODING 125
SWIDTH 1000 0
DWIDTH 8 0
BBX 4 10 3 -1
BITMAP
c0
20
20
20
10
20
20
20
20
c0
ENDCHAR
STARTCHAR asciitilde
ENCODING 126
SWIDTH 1000 0
DWIDTH 8 0
BBX 6 2 1 6
BITMAP
64
98
ENDCHAR
STARTCHAR KO_KAI
ENCODING 161
SWIDTH 1000 0
DWIDTH 8 0
BBX 5 8 2 0
BITMAP
70
88
48
88
88
88
88
88
ENDCHAR
STARTCHAR KHO_KHAI
ENCODING 162
SWIDTH 1000 0
DWIDTH 8 0
BBX 5 8 1 0
BITMAP
48
a8
68
28
28
28
28
38
ENDCHAR
STARTCHAR KHO_KHUT
ENCODING 163
SWIDTH 1000 0
DWIDTH 8 0
BBX 6 8 1 0
BITMAP
54
ac
54
14
14
14
14
1c
ENDCHAR
STARTCHAR KHO_KHWAI
ENCODING 164
SWIDTH 1000 0
DWIDTH 8 0
BBX 6 8 1 0
BITMAP
78
84
94
ac
54
44
44
44
ENDCHAR
STARTCHAR KHO_KHON
ENCODING 165
SWIDTH 1000 0
DWIDTH 8 0
BBX 6 8 1 0
BITMAP
58
a4
94
ac
54
44
44
44
ENDCHAR
STARTCHAR KHO_RAKHANG
ENCODING 166
SWIDTH 1000 0
DWIDTH 8 0
BBX 8 8 0 0
BITMAP
51
a9
51
11
11
1d
2b
11
ENDCHAR
STARTCHAR NGO_NGU
ENCODING 167
SWIDTH 1000 0
DWIDTH 8 0
BBX 5 8 2 0
BITMAP
10
28
18
08
88
48
28
18
ENDCHAR
STARTCHAR CHO_CHAN
ENCODING 168
SWIDTH 1000 0
DWIDTH 8 0
BBX 5 8 2 0
BITMAP
70
88
08
28
58
28
08
08
ENDCHAR
STARTCHAR CHO_CHING
ENCODING 169
SWIDTH 1000 0
DWIDTH 8 0
BBX 8 8 0 0
BITMAP
78
84
04
44
a4
66
3d
22
ENDCHAR
STARTCHAR CHO_CHANG
ENCODING 170
SWIDTH 1000 0
DWIDTH 8 0
BBX 7 10 1 0
BITMAP
02
04
48
b0
68
28
28
28
28
38
ENDCHAR
STARTCHAR SO_SO
ENCODING 171
SWIDTH 1000 0
DWIDTH 8 0
BBX 8 10 0 0
BITMAP
01
02
54
a8
54
14
14
14
14
1c
ENDCHAR
STARTCHAR CHO_CHOE
ENCODING 172
SWIDTH 1000 0
DWIDTH 8 0
BBX 7 8 1 0
BITMAP
72
8a
4a
8a
8a
ca
b6
4a
ENDCHAR
STARTCHAR YO_YING
ENCODING 173
SWIDTH 1000 0
DWIDTH 8 0
BBX 6 11 1 -3
BITMAP
64
94
54
94
94
d4
b4
5c
00
10
1c
ENDCHAR
STARTCHAR DO_CHADA
ENCODING 174
SWIDTH 1000 0
DWIDTH 8 0
BBX 7 11 1 -3
BITMAP
1c
22
12
22
22
62
a2
42
2a
52
2e
ENDCHAR
STARTCHAR TO_PATAK
ENCODING 175
SWIDTH 1000 0
DWIDTH 8 0
BBX 7 11 1 -3
BITMAP
1c
22
12
22
22
62
a2
42
52
aa
56
ENDCHAR
STARTCHAR THO_THAN
ENCODING 176
SWIDTH 1000 0
DWIDTH 8 0
BBX 7 11 1 -3
BITMAP
1c
22
18
04
12
2a
16
02
52
aa
56
ENDCHAR
STARTCHAR THO_NANGMONTHO
ENCODING 177
SWIDTH 1000 0
DWIDTH 8 0
BBX 8 8 0 0
BITMAP
56
ad
55
19
19
11
11
11
ENDCHAR
STARTCHAR THO_PHUTHAO
ENCODING 178
SWIDTH 1000 0
DWIDTH 8 0
BBX 8 8 0 0
BITMAP
29
55
95
ad
95
ad
57
49
ENDCHAR
STARTCHAR NO_NEN
ENCODING 179
SWIDTH 1000 0
DWIDTH 8 0
BBX 8 8 0 0
BITMAP
64
94
54
94
94
d6
bd
52
ENDCHAR
STARTCHAR DO_DEK
ENCODING 180
SWIDTH 1000 0
DWIDTH 8 0
BBX 6 8 1 0
BITMAP
38
44
94
ac
94
a4
44
44
ENDCHAR
STARTCHAR TO_TAO
ENCODING 181
SWIDTH 1000 0
DWIDTH 8 0
BBX 6 8 1 0
BITMAP
28
54
94
ac
94
a4
44
44
ENDCHAR
STARTCHAR THO_THUNG
ENCODING 182
SWIDTH 1000 0
DWIDTH 8 0
BBX 5 8 2 0
BITMAP
70
88
48
88
88
c8
a8
48
ENDCHAR
STARTCHAR THO_THAHAN
ENCODING 183
SWIDTH 1000 0
DWIDTH 8 0
BBX 7 8 1 0
BITMAP
44
aa
6a
32
32
22
22
22
ENDCHAR
STARTCHAR THO_THONG
ENCODING 184
SWIDTH 1000 0
DWIDTH 8 0
BBX 5 8 2 0
BITMAP
70
88
e0
18
88
88
88
f8
ENDCHAR
STARTCHAR NO_NU
ENCODING 185
SWIDTH 1000 0
DWIDTH 8 0
BBX 8 8 0 0
BITMAP
44
a4
64
24
24
2e
35
22
ENDCHAR
STARTCHAR BO_BAIMAI
ENCODING 186
SWIDTH 1000 0
DWIDTH 8 0
BBX 7 8 1 0
BITMAP
42
a2
62
22
22
22
22
3e
ENDCHAR
STARTCHAR PO_PLA
ENCODING 187
SWIDTH 1000 0
DWIDTH 8 0
BBX 7 10 1 0
BITMAP
02
02
42
a2
62
22
22
22
22
3e
ENDCHAR
STARTCHAR PHO_PHUNG
ENCODING 188
SWIDTH 1000 0
DWIDTH 8 0
BBX 5 8 2 0
BITMAP
48
a8
c8
88
88
a8
d8
88
ENDCHAR
STARTCHAR FO_FA
ENCODING 189
SWIDTH 1000 0
DWIDTH 8 0
BBX 5 10 3 0
BITMAP
08
08
48
a8
c8
88
88
a8
d8
88
ENDCHAR
STARTCHAR PHO_PHAN
ENCODING 190
SWIDTH 1000 0
DWIDTH 8 0
BBX 7 8 1 0
BITMAP
42
a2
62
22
22
2a
36
22
ENDCHAR
STARTCHAR FO_FAN
ENCODING 191
SWIDTH 1000 0
DWIDTH 8 0
BBX 7 10 1 0
BITMAP
02
02
42
a2
62
22
22
2a
36
22
ENDCHAR
STARTCHAR PHO_SAMPHAO
ENCODING 192
SWIDTH 1000 0
DWIDTH 8 0
BBX 7 8 1 0
BITMAP
1c
22
12
22
22
62
a2
42
ENDCHAR
STARTCHAR MO_MA
ENCODING 193
SWIDTH 1000 0
DWIDTH 8 0
BBX 7 8 1 0
BITMAP
42
a2
62
22
22
72
aa
46
ENDCHAR
STARTCHAR YO_YAK
ENCODING 194
SWIDTH 1000 0
DWIDTH 8 0
BBX 5 8 2 0
BITMAP
48
a8
c8
88
48
88
88
f8
ENDCHAR
STARTCHAR RO_RUA
ENCODING 195
SWIDTH 1000 0
DWIDTH 8 0
BBX 5 8 2 0
BITMAP
70
c8
20
10
10
30
50
20
ENDCHAR
STARTCHAR RU
ENCODING 196
SWIDTH 1000 0
DWIDTH 8 0
BBX 5 10 2 -2
BITMAP
70
88
48
88
88
c8
a8
48
08
08
ENDCHAR
STARTCHAR LO_LING
ENCODING 197
SWIDTH 1000 0
DWIDTH 8 0
BBX 5 8 2 0
BITMAP
70
88
08
68
98
c8
a8
48
ENDCHAR
STARTCHAR LU
ENCODING 198
SWIDTH 1000 0
DWIDTH 8 0
BBX 7 10 1 -2
BITMAP
1c
22
12
22
22
62
a2
42
02
02
ENDCHAR
STARTCHAR WO_WAEN
ENCODING 199
SWIDTH 1000 0
DWIDTH 8 0
BBX 5 8 2 0
BITMAP
70
88
08
08
08
18
28
10
ENDCHAR
STARTCHAR SO_SALA
ENCODING 200
SWIDTH 1000 0
DWIDTH 8 0
BBX 7 10 1 0
BITMAP
02
04
78
84
94
ac
54
44
44
44
ENDCHAR
STARTCHAR SO_RUSI
ENCODING 201
SWIDTH 1000 0
DWIDTH 8 0
BBX 8 8 0 0
BITMAP
42
a2
6b
36
2a
22
22
3e
ENDCHAR
STARTCHAR SO_SUA
ENCODING 202
SWIDTH 1000 0
DWIDTH 8 0
BBX 6 10 1 0
BITMAP
04
08
70
88
08
68
98
c8
a8
48
ENDCHAR
STARTCHAR HO_HIP
ENCODING 203
SWIDTH 1000 0
DWIDTH 8 0
BBX 8 8 0 0
BITMAP
42
a5
6e
32
22
22
22
22
ENDCHAR
STARTCHAR LO_CHULA
ENCODING 204
SWIDTH 1000 0
DWIDTH 8 0
BBX 7 10 1 0
BITMAP
0a
14
4a
a2
62
22
22
2a
36
22
ENDCHAR
STARTCHAR O_ANG
ENCODING 205
SWIDTH 1000 0
DWIDTH 8 0
BBX 5 8 2 0
BITMAP
70
88
08
48
a8
c8
88
f8
ENDCHAR
STARTCHAR HO_NOKHUK
ENCODING 206
SWIDTH 1000 0
DWIDTH 8 0
BBX 6 10 1 0
BITMAP
04
08
70
88
08
48
a8
c8
88
f8
ENDCHAR
STARTCHAR PAIYANNOI
ENCODING 207
SWIDTH 1000 0
DWIDTH 8 0
BBX 5 7 1 0
BITMAP
58
a8
48
08
08
08
08
ENDCHAR
STARTCHAR SARA_A
ENCODING 208
SWIDTH 1000 0
DWIDTH 8 0
BBX 5 6 2 1
BITMAP
40
a8
70
40
a8
70
ENDCHAR
STARTCHAR MAI_HAN-AKAT
ENCODING 209
SWIDTH 1000 0
DWIDTH 8 0
BBX 5 3 2 9
BITMAP
40
a8
70
ENDCHAR
STARTCHAR SARA_AA
ENCODING 210
SWIDTH 1000 0
DWIDTH 8 0
BBX 5 8 2 0
BITMAP
70
88
08
08
08
08
08
08
ENDCHAR
STARTCHAR SARA_AM
ENCODING 211
SWIDTH 1000 0
DWIDTH 8 0
BBX 7 11 0 0
BITMAP
40
a0
40
1c
22
02
02
02
02
02
02
ENDCHAR
STARTCHAR SARA_I
ENCODING 212
SWIDTH 1000 0
DWIDTH 8 0
BBX 4 1 3 10
BITMAP
f0
ENDCHAR
STARTCHAR SARA_II
ENCODING 213
SWIDTH 1000 0
DWIDTH 8 0
BBX 4 2 3 10
BITMAP
10
f0
ENDCHAR
STARTCHAR SARA_UE
ENCODING 214
SWIDTH 1000 0
DWIDTH 8 0
BBX 5 3 2 10
BITMAP
10
28
f0
ENDCHAR
STARTCHAR SARA_UEE
ENCODING 215
SWIDTH 1000 0
DWIDTH 8 0
BBX 5 2 2 10
BITMAP
28
f8
ENDCHAR
STARTCHAR SARA_U
ENCODING 216
SWIDTH 1000 0
DWIDTH 8 0
BBX 2 2 4 -3
BITMAP
c0
40
ENDCHAR
STARTCHAR SARA_UU
ENCODING 217
SWIDTH 1000 0
DWIDTH 8 0
BBX 4 2 3 -3
BITMAP
d0
70
ENDCHAR
STARTCHAR PHINTHU
ENCODING 218
SWIDTH 1000 0
DWIDTH 8 0
BBX 2 2 3 -3
BITMAP
c0
c0
ENDCHAR
STARTCHAR BATH
ENCODING 223
SWIDTH 1000 0
DWIDTH 8 0
BBX 5 12 2 -2
BITMAP
20
20
f0
a8
a8
f0
a8
a8
a8
f0
20
20
ENDCHAR
STARTCHAR SARA_E
ENCODING 224
SWIDTH 1000 0
DWIDTH 8 0
BBX 3 8 3 0
BITMAP
80
80
80
80
80
c0
a0
40
ENDCHAR
STARTCHAR SARA_AE
ENCODING 225
SWIDTH 1000 0
DWIDTH 8 0
BBX 6 8 1 0
BITMAP
90
90
90
90
90
d8
b4
48
ENDCHAR
STARTCHAR SARA_O
ENCODING 226
SWIDTH 1000 0
DWIDTH 8 0
BBX 5 11 1 0
BITMAP
78
c0
20
20
20
20
20
20
30
28
10
ENDCHAR
STARTCHAR SARA_AI_MAIMUAN
ENCODING 227
SWIDTH 1000 0
DWIDTH 8 0
BBX 6 11 1 0
BITMAP
60
90
50
10
10
10
10
10
18
14
08
ENDCHAR
STARTCHAR SARA_AI_MAIMALAI
ENCODING 228
SWIDTH 1000 0
DWIDTH 8 0
BBX 6 11 1 0
BITMAP
b0
50
10
10
10
10
10
10
18
14
08
ENDCHAR
STARTCHAR LAKKHANGYAO
ENCODING 229
SWIDTH 1000 0
DWIDTH 8 0
BBX 5 10 2 -2
BITMAP
70
88
08
08
08
08
08
08
08
08
ENDCHAR
STARTCHAR MAIYAMOK
ENCODING 230
SWIDTH 1000 0
DWIDTH 8 0
BBX 5 10 2 -2
BITMAP
50
a8
c8
a8
48
08
08
08
10
60
ENDCHAR
STARTCHAR MAITAIKHU
ENCODING 231
SWIDTH 1000 0
DWIDTH 8 0
BBX 5 4 2 12
BITMAP
08
70
a8
50
ENDCHAR
STARTCHAR MAI_EK
ENCODING 232
SWIDTH 1000 0
DWIDTH 8 0
BBX 1 3 6 13
BITMAP
80
80
80
ENDCHAR
STARTCHAR MAI_THO
ENCODING 233
SWIDTH 1000 0
DWIDTH 8 0
BBX 4 3 3 13
BITMAP
90
50
e0
ENDCHAR
STARTCHAR MAI_TRI
ENCODING 234
SWIDTH 1000 0
DWIDTH 8 0
BBX 6 4 1 12
BITMAP
04
74
a8
50
ENDCHAR
STARTCHAR MAI_CHATTAWA
ENCODING 235
SWIDTH 1000 0
DWIDTH 8 0
BBX 3 3 3 13
BITMAP
40
e0
40
ENDCHAR
STARTCHAR THANTAKHAT
ENCODING 236
SWIDTH 1000 0
DWIDTH 8 0
BBX 4 4 2 12
BITMAP
30
40
a0
40
ENDCHAR
STARTCHAR NIKHAHIT
ENCODING 237
SWIDTH 1000 0
DWIDTH 8 0
BBX 3 3 3 13
BITMAP
40
a0
40
ENDCHAR
STARTCHAR YAMAKKAN
ENCODING 238
SWIDTH 1000 0
DWIDTH 8 0
BBX 5 5 2 11
BITMAP
38
40
60
80
c0
ENDCHAR
STARTCHAR FONGMAN
ENCODING 239
SWIDTH 1000 0
DWIDTH 8 0
BBX 7 8 1 0
BITMAP
38
44
92
ba
ba
92
44
38
ENDCHAR
STARTCHAR THAI_DIGIT_ZERO
ENCODING 240
SWIDTH 1000 0
DWIDTH 8 0
BBX 7 8 1 0
BITMAP
38
44
8a
9a
b2
a2
44
38
ENDCHAR
STARTCHAR THAI_DIGIT_ONE
ENCODING 241
SWIDTH 1000 0
DWIDTH 8 0
BBX 7 7 1 0
BITMAP
38
44
4a
4a
32
84
78
ENDCHAR
STARTCHAR THAI_DIGIT_TWO
ENCODING 242
SWIDTH 1000 0
DWIDTH 8 0
BBX 8 8 0 0
BITMAP
8a
55
59
55
29
21
21
3f
ENDCHAR
STARTCHAR THAI_DIGIT_THREE
ENCODING 243
SWIDTH 1000 0
DWIDTH 8 0
BBX 7 8 1 0
BITMAP
6c
92
82
82
82
c2
a2
42
ENDCHAR
STARTCHAR THAI_DIGIT_FOUR
ENCODING 244
SWIDTH 1000 0
DWIDTH 8 0
BBX 7 10 1 0
BITMAP
02
04
38
40
88
94
88
88
44
3e
ENDCHAR
STARTCHAR THAI_DIGIT_FIVE
ENCODING 245
SWIDTH 1000 0
DWIDTH 8 0
BBX 7 11 1 0
BITMAP
0a
14
08
30
40
88
94
88
88
44
3e
ENDCHAR
STARTCHAR THAI_DIGIT_SIX
ENCODING 246
SWIDTH 1000 0
DWIDTH 8 0
BBX 8 9 0 0
BITMAP
80
5c
22
01
11
29
31
22
1c
ENDCHAR
STARTCHAR THAI_DIGIT_SEVEN
ENCODING 247
SWIDTH 1000 0
DWIDTH 8 0
BBX 7 10 1 0
BITMAP
08
04
52
aa
8a
8a
8a
ca
ac
48
ENDCHAR
STARTCHAR THAI_DIGIT_EIGHT
ENCODING 248
SWIDTH 1000 0
DWIDTH 8 0
BBX 7 10 1 0
BITMAP
02
04
38
40
80
80
90
94
ba
4c
ENDCHAR
STARTCHAR THAI_DIGIT_NINE
ENCODING 249
SWIDTH 1000 0
DWIDTH 8 0
BBX 7 9 1 0
BITMAP
02
0a
54
a0
90
88
c4
a0
40
ENDCHAR
STARTCHAR ANGKHANKHU
ENCODING 250
SWIDTH 1000 0
DWIDTH 8 0
BBX 7 7 1 0
BITMAP
5a
aa
4a
0a
0a
0a
0a
ENDCHAR
STARTCHAR KHOMUT
ENCODING 251
SWIDTH 1000 0
DWIDTH 8 0
BBX 7 7 1 1
BITMAP
40
80
a8
ae
b8
a0
40
ENDCHAR
ENDFONT
